<svg xmlns="http://www.w3.org/2000/svg" width="38" height="38" viewBox="0 0 38 38">
    <defs>
        <clipPath id="3zd7cp4bta">
            <path transform="translate(24 16)" style="opacity:.5;fill:none" d="M0 0h38v38H0z"/>
        </clipPath>
    </defs>
    <g transform="translate(-24 -16)" style="clip-path:url(#3zd7cp4bta)">
        <g data-name="합치기 34" style="fill:none">
            <path d="M-2345.7 17.2a6 6 0 0 1-6-6v-14a5.98 5.98 0 0 1 .557-2.528 4.941 4.941 0 0 1 1.91-2.333l12.763-8.493a5 5 0 0 1 5.54 0l12.763 8.493a4.939 4.939 0 0 1 1.912 2.338 5.977 5.977 0 0 1 .555 2.523v14a6 6 0 0 1-6 6z" style="stroke:none" transform="translate(2376.7 34.802)"/>
            <path d="M-2321.7 13.698c1.378 0 2.5-1.122 2.5-2.5v-14c0-.368-.077-.721-.23-1.049l-.048-.104-.041-.107c-.104-.268-.296-.493-.587-.687l-12.764-8.494a1.493 1.493 0 0 0-1.661 0l-12.763 8.494c-.29.193-.482.418-.587.686l-.04.106-.048.103c-.154.329-.231.683-.231 1.052v14c0 1.378 1.122 2.5 2.5 2.5h24m0 3.5h-24a6 6 0 0 1-6-6v-14c0-.903.2-1.76.557-2.527.345-.89.97-1.708 1.91-2.334l12.763-8.493a5 5 0 0 1 5.54 0l12.763 8.493c.942.628 1.568 1.447 1.912 2.339.356.766.555 1.621.555 2.522v14a6 6 0 0 1-6 6z" style="fill:#f25600;stroke:none" transform="translate(2376.7 34.802)"/>
        </g>
        <g data-name="사각형 1298" style="stroke:#f25600;stroke-width:3.5px;fill:none">
            <path d="M8.5 0A8.5 8.5 0 0 1 17 8.5V20H0V8.5A8.5 8.5 0 0 1 8.5 0z" style="stroke:none" transform="translate(35 32)"/>
            <path d="M8.5 1.75a6.75 6.75 0 0 1 6.75 6.75v9.75H1.75V8.5A6.75 6.75 0 0 1 8.5 1.75z" style="fill:none" transform="translate(35 32)"/>
        </g>
    </g>
</svg>
