<svg xmlns="http://www.w3.org/2000/svg" width="290" height="230" viewBox="0 0 290 230">
    <path data-name="사각형 1338" style="fill:none" d="M0 0h290v230H0z"/>
    <path d="M97.18 27.66c1.4 1.872 3.822 2.385 5.412 1.145a3.936 3.936 0 0 0 .787-4.931 4.9 4.9 0 0 0-.44-.708 3.87 3.87 0 0 0-5.412-1.145 3.3 3.3 0 0 0-1.044 1.418 4.465 4.465 0 0 0 .7 4.221zm54.872 59.458c9.716 17.953 14.323 40.417-3.825 61.679l17.315 7.569-2.712 9.134-29.669-3.221a66.62 66.62 0 0 1-17.567 8.916l-1.751 19h-11.9l-1.509-16.343c-21.929.618-39.1-12.671-45.647-20.686q-.416-.507-.81-1.032a22.01 22.01 0 0 1-.835-1.2C40.255 131.886 53 103.348 35.916 97.21c0 0-11.313-4.646-15.964 8.936-.028.079-.053.164-.079.243L0 91.829c8.48-20.173 26.469-40.5 46.334-33.272C76.38 69.44 56.445 108.809 74.892 115.48c0 0 11.13 4.232 16.179-10.3 2.67-7.707 2.029-18.731 1.655-22.914L81.737 28.48l-2.312 1.458c-.148.106-.479.306-.778.483a11.436 11.436 0 0 1-1.122.6 12.326 12.326 0 0 1-3.122.926c-5.3.856-8.959-.835-11.431-3.117a10.142 10.142 0 0 1-2.911-3.749 8.964 8.964 0 0 1-.895-2.923c-.03-.176-.065-.349-.088-.528-.669-5.51 2.554-10.5 7.282-11.1a8.467 8.467 0 0 1 8.075 4.205 10.7 10.7 0 0 1 4.19-4.48c6.752-4.2 12.814 1.65 15.9 5.641l21.08-3.017-2.545 11.098c4 1.361 9.774 4.552 8.251 11.424a6.725 6.725 0 0 1-4.406 5.072c7.307 9.26 31.8 40.452 35.148 46.644zm83.826-32.291s3.883 50-34.493 58.951c-13.4 3.124-29.1-4.725-34.355-15.04-4.179-8.207-8.025-30.532-11.438-48.817-3.786-20.275-5.482-35.3-9.269-37.448-5.641-3.205-6.734 13.46-20.082 10.556l-2.965-8.829C139.094 17.671 136.092 2 148.675.148c4.781-.7 12.955.822 16.538 10.6a85.754 85.754 0 0 1 3.112 11.952l3.066-1.065a3.48 3.48 0 0 1 2.573-3.417 3.638 3.638 0 0 1 4.086 3.107 3.67 3.67 0 0 1-2.483 4.512 3.249 3.249 0 0 1-3.108-1.134l-3.58.829c.708 3.73 1.391 7.731 2.1 11.831l3.837-.414a3.462 3.462 0 0 1 3.269-2.747 3.647 3.647 0 0 1 3.29 3.947 3.66 3.66 0 0 1-3.425 3.839 3.268 3.268 0 0 1-2.775-1.807h-3.7q1.344 7.821 3 15.582l3.689-1.117a3.479 3.479 0 0 1 2.709-3.311 3.936 3.936 0 0 1 1.294 7.678 3.252 3.252 0 0 1-3.067-1.263l-4.042.766c3.006 13.9 5.13 20.684 10.265 22.66 7.537 2.9 9.563-4.382 10.67-8.191l-4.42-13.735 44.3-4.424z" transform="translate(27 22)" style="fill:#ff7d00;fill-rule:evenodd"/>
</svg>
