<svg xmlns="http://www.w3.org/2000/svg" width="325" height="75" viewBox="0 0 325 75">
    <defs>
        <clipPath id="e614vf1bya">
            <path data-name="사각형 1259" style="fill:none" d="M0 0h304.02v47.891H0z"/>
        </clipPath>
    </defs>
    <path data-name="사각형 1355" style="fill:none" d="M0 0h325v75H0z"/>
    <g data-name="그룹 3309" transform="translate(12 11.832)" style="clip-path:url(#e614vf1bya)">
        <path data-name="패스 1116" d="M567.94 79.365a2.876 2.876 0 1 0 2.886 2.866 2.862 2.862 0 0 0-2.886-2.866m0 5.327a2.452 2.452 0 1 1 2.36-2.461 2.367 2.367 0 0 1-2.36 2.461" transform="translate(-266.805 -37.475)" style="fill:#ff7d00"/>
        <path data-name="패스 1117" d="M570.847 82.639c0-.745-.48-1-1.329-1h-1.274v3.39h.66v-1.456h.426l.832 1.454h.7l-.9-1.482a.848.848 0 0 0 .894-.9m-1.943.414v-.895h.571c.316 0 .7.054.7.426 0 .414-.286.469-.665.469z" transform="translate(-268.318 -38.547)" style="fill:#ff7d00"/>
        <path data-name="패스 1118" d="M350.568 49.35h14.691V36.932l17.192-32.593h-15.6l-8.843 19.066-8.47-19.066h-15.314l16.344 32.573z" transform="translate(-157.816 -2.049)" style="fill:#ff7d00"/>
        <path data-name="패스 1119" d="M18.065.067C12.8-.181 3.822.311 0 .6l.307 11.389 3.661-.229v35.495h14.113v-8.87C38.705 37.4 43.523 26.4 43.523 18.643c0-11.006-8.971-17.8-25.458-18.576m.016 27.251V11.811c8.991.423 11.153 4.268 11.153 7.4 0 4.455-2.984 7.938-11.153 8.1" style="fill:#ff7d00"/>
        <path data-name="패스 1120" d="M437.947 1.2c-13.626 0-23.059 9.885-23.059 23.5s9.094 23.753 24.377 23.753c6.366 0 11.9-1.387 16.54-4.532l-5.076-10.442a19.463 19.463 0 0 1-10.866 3.3c-5.628 0-9.154-2.687-10.525-7.349h30.007a37.612 37.612 0 0 0 .47-6.328c-.088-9.689-5.193-21.9-21.868-21.9m-8.752 18.687c1.1-4.538 3.988-7.636 8.8-7.636 4.582 0 7.928 2.722 8.277 7.636z" transform="translate(-195.905 -.567)" style="fill:#ff7d00"/>
        <path data-name="패스 1121" d="M191.745.953c-5.215-.245-14.1.242-17.887.523l.3 11.281 3.625-.226v35.143h13.972v-8.783c20.419-.974 25.19-11.864 25.19-19.546 0-10.9-8.882-17.624-25.206-18.392m.016 26.981V12.58c8.9.419 11.042 4.226 11.042 7.33 0 4.41-2.954 7.859-11.042 8.024" transform="translate(-82.094 -.418)" style="fill:#ff7d00"/>
        <path data-name="패스 1122" d="M525.618 20.947c-2.517-1.015-5.548-2.138-7.521-3.035-1.931-.876-2.613-1.752-2.613-3.081 0-1.763 1.823-2.726 4.144-2.726 3.553 0 6.327 1.639 8.821 4.3l7.824-8.135c-3.354-4.513-9.114-7.357-16.465-7.357-9.959 0-17.733 4.8-17.733 14.279 0 7.484 3.609 11.081 10.61 14.11 1.988.86 4.645 1.625 6.636 2.471 1.739.738 2.831 1.519 2.831 2.947 0 1.323-1.16 2.4-4.522 2.4a21.97 21.97 0 0 1-10.815-3.357l-4.757 9.737a26.237 26.237 0 0 0 15.588 4.62c8.682 0 17.991-3.76 17.991-13.868 0-7.613-4.87-11.23-10.019-13.308" transform="translate(-237.066 -.431)" style="fill:#ff7d00"/>
        <path data-name="패스 1123" d="M108.539 1.738c-12.96 0-23.743 9.624-23.743 23.274s10.783 23.273 23.743 23.273 23.744-9.623 23.744-23.273S121.5 1.738 108.539 1.738m.107 34.062c-6.3 0-10.29-4.844-10.29-10.877s3.993-10.877 10.29-10.877 10.291 4.844 10.291 10.877S114.943 35.8 108.646 35.8" transform="translate(-40.04 -.821)" style="fill:#ff7d00"/>
        <path data-name="패스 1124" d="M280.708 1.2c-13.626 0-23.059 9.885-23.059 23.5s8.887 23.753 24.5 23.753c6.985 0 13.093-1.695 17.992-5.5l-5.506-10.079a20.348 20.348 0 0 1-11.889 3.9c-5.879 0-9.346-2.687-10.675-7.349h30.039a37.7 37.7 0 0 0 .464-6.328c-.088-9.689-5.193-21.9-21.868-21.9m-8.752 18.687c1.1-4.538 3.988-7.636 8.8-7.636 4.582 0 7.9 2.674 8.277 7.636z" transform="translate(-121.659 -.567)" style="fill:#ff7d00"/>
    </g>
</svg>
